<svg width="260" height="99" viewBox="0 0 260 99" fill="none" xmlns="http://www.w3.org/2000/svg">
<path d="M4.20232 63.933V55.0486C5.00011 55.7738 5.94295 56.4266 7.03084 57.0068C8.14291 57.587 9.31541 58.0826 10.5484 58.4936C11.7813 58.8804 13.0142 59.1825 14.2472 59.4001C15.4801 59.6177 16.6164 59.7265 17.6559 59.7265C21.2822 59.7265 23.9778 59.1221 25.7426 57.9133C27.5315 56.7046 28.426 54.9519 28.426 52.6552C28.426 51.4223 28.1238 50.3585 27.5195 49.4641C26.9392 48.5454 26.1173 47.7113 25.0536 46.9619C23.9899 46.2125 22.7327 45.4993 21.2822 44.8224C19.8559 44.1213 18.3207 43.396 16.6768 42.6466C14.912 41.7038 13.2681 40.7488 11.745 39.7818C10.222 38.8148 8.89234 37.7511 7.7561 36.5907C6.64403 35.4061 5.76163 34.0764 5.1089 32.6017C4.48034 31.127 4.16606 29.3985 4.16606 27.4161C4.16606 24.9744 4.71 22.8591 5.7979 21.0701C6.90996 19.2569 8.36048 17.7702 10.1495 16.6097C11.9626 15.4251 14.0175 14.5548 16.3142 13.9988C18.6108 13.4186 20.9558 13.1285 23.3492 13.1285C28.7887 13.1285 32.7534 13.745 35.2435 14.9779V23.4997C32.2941 21.3723 28.4986 20.3086 23.8569 20.3086C22.5756 20.3086 21.2943 20.4294 20.013 20.6712C18.7559 20.913 17.6196 21.3118 16.6043 21.8679C15.6131 22.4239 14.8032 23.1371 14.1747 24.0074C13.5461 24.8777 13.2318 25.9293 13.2318 27.1623C13.2318 28.3227 13.4736 29.326 13.9571 30.1721C14.4406 31.0183 15.1417 31.7919 16.0603 32.4929C17.0032 33.194 18.1394 33.883 19.4691 34.5599C20.8229 35.2127 22.3822 35.9259 24.147 36.6995C25.9601 37.6423 27.6645 38.6335 29.2601 39.673C30.8798 40.7126 32.2941 41.8609 33.5029 43.118C34.7358 44.3751 35.7028 45.7773 36.4039 47.3245C37.1292 48.8476 37.4918 50.5882 37.4918 52.5464C37.4918 55.1815 36.9599 57.4057 35.8962 59.2188C34.8325 61.032 33.3941 62.5067 31.5809 63.6429C29.7919 64.7791 27.7249 65.6011 25.3799 66.1088C23.0349 66.6165 20.557 66.8703 17.946 66.8703C17.0757 66.8703 15.9999 66.7978 14.7186 66.6527C13.4615 66.5319 12.1681 66.3385 10.8385 66.0725C9.50881 65.8308 8.25169 65.5286 7.0671 65.166C5.88251 64.8033 4.92758 64.3923 4.20232 63.933ZM55.9134 66H47.029V13.9988H55.9134V66ZM109.329 62.4462C103.914 65.3956 97.8818 66.8703 91.2336 66.8703C83.5459 66.8703 77.3207 64.477 72.5582 59.6902C67.7956 54.9035 65.4143 48.5696 65.4143 40.6884C65.4143 32.638 68.0132 26.0381 73.2109 20.8888C78.4328 15.7152 85.0568 13.1285 93.083 13.1285C98.8609 13.1285 103.72 13.9746 107.661 15.6669V24.5513C103.672 21.8921 98.9214 20.5624 93.4094 20.5624C87.8732 20.5624 83.3283 22.3876 79.7745 26.0381C76.2449 29.6886 74.4801 34.4149 74.4801 40.217C74.4801 46.1883 76.0031 50.8904 79.0492 54.3233C82.0953 57.732 86.2293 59.4364 91.4512 59.4364C95.0292 59.4364 98.1236 58.7474 100.735 57.3694V45.0037H89.7831V37.7511H109.329V62.4462ZM129.128 47.1432V66H120.534V13.9988H136.309C142.28 13.9988 146.909 15.3889 150.197 18.169C153.485 20.9492 155.129 24.8656 155.129 29.9183C155.129 34.9709 153.413 39.1049 149.98 42.3202C146.547 45.5356 141.905 47.1432 136.055 47.1432H129.128ZM129.128 21.1064V40.1082H134.713C138.412 40.1082 141.228 39.25 143.162 37.5335C145.096 35.8171 146.063 33.3995 146.063 30.2809C146.063 24.1645 142.51 21.1064 135.402 21.1064H129.128ZM193.169 66H163.977V13.9988H192.009V21.3239H172.608V36.0467H190.486V43.3356H172.608V58.7111H193.169V66Z" fill="#0D6EFD"/>
<path d="M221.177 65.8823V52.9412H208.236V27.0588H221.177V14.1176H247.059V27.0588H260.001V52.9412H247.059V65.8823H221.177ZM213.412 37.4118H226.354C226.785 37.4118 227.195 37.5196 227.583 37.7353C227.971 37.951 228.273 38.2314 228.489 38.5765L230.754 41.9412L234.248 31.4588C234.42 30.9412 234.733 30.5098 235.186 30.1647C235.639 29.8196 236.146 29.6471 236.707 29.6471C237.138 29.6471 237.548 29.7549 237.936 29.9706C238.324 30.1863 238.626 30.4667 238.842 30.8118L243.242 37.4118H254.824V32.2353H241.883V19.2941H226.354V32.2353H213.412V37.4118ZM226.354 60.7059H241.883V47.7647H254.824V42.5882H241.883C241.452 42.5882 241.042 42.4804 240.654 42.2647C240.265 42.049 239.942 41.7686 239.683 41.4235L237.483 38.0588L233.989 48.5412C233.816 49.0588 233.493 49.4902 233.018 49.8353C232.544 50.1804 232.026 50.3529 231.465 50.3529C231.034 50.3529 230.624 50.2451 230.236 50.0294C229.848 49.8137 229.546 49.5333 229.33 49.1882L224.93 42.5882H213.412V47.7647H226.354V60.7059Z" fill="#0D6EFD"/>
<path d="M1.20923 81.7026V80.6875C1.32544 80.79 1.46387 80.8823 1.62451 80.9644C1.78857 81.0464 1.95947 81.1165 2.13721 81.1746C2.31836 81.2292 2.49951 81.272 2.68066 81.3027C2.86182 81.3335 3.0293 81.3489 3.18311 81.3489C3.71289 81.3489 4.10767 81.2515 4.36743 81.0566C4.63062 80.8584 4.76221 80.5747 4.76221 80.2056C4.76221 80.0073 4.71777 79.8347 4.62891 79.6877C4.54346 79.5408 4.42383 79.4075 4.27002 79.2878C4.11621 79.1648 3.93335 79.0486 3.72144 78.9392C3.51294 78.8264 3.28735 78.7085 3.04468 78.5854C2.78833 78.4556 2.54907 78.324 2.3269 78.1907C2.10474 78.0574 1.91162 77.9104 1.74756 77.7498C1.5835 77.5891 1.45361 77.408 1.35791 77.2063C1.26562 77.0012 1.21948 76.762 1.21948 76.4885C1.21948 76.1536 1.29297 75.863 1.43994 75.6169C1.58691 75.3674 1.78003 75.1624 2.01929 75.0017C2.25854 74.8411 2.53027 74.7214 2.83447 74.6428C3.14209 74.5642 3.45483 74.5249 3.77271 74.5249C4.49731 74.5249 5.02539 74.6121 5.35693 74.7864V75.7554C4.92285 75.4546 4.36572 75.3042 3.68555 75.3042C3.49756 75.3042 3.30957 75.3247 3.12158 75.3657C2.93359 75.4033 2.76611 75.4666 2.61914 75.5554C2.47217 75.6443 2.35254 75.7588 2.26025 75.8989C2.16797 76.0391 2.12183 76.21 2.12183 76.4116C2.12183 76.5996 2.15601 76.762 2.22437 76.8987C2.29614 77.0354 2.40039 77.1602 2.53711 77.2729C2.67383 77.3857 2.8396 77.4951 3.03442 77.6011C3.23267 77.707 3.45996 77.8232 3.71631 77.9497C3.97949 78.0796 4.229 78.2163 4.46484 78.3599C4.70068 78.5034 4.90747 78.6624 5.08521 78.8367C5.26294 79.011 5.40308 79.2041 5.50562 79.416C5.61157 79.6279 5.66455 79.8706 5.66455 80.144C5.66455 80.5063 5.59277 80.814 5.44922 81.0669C5.30908 81.3164 5.11768 81.5198 4.875 81.677C4.63574 81.8342 4.35889 81.947 4.04443 82.0154C3.72998 82.0872 3.39844 82.123 3.0498 82.123C2.93359 82.123 2.79004 82.1128 2.61914 82.0923C2.44824 82.0752 2.27393 82.0479 2.09619 82.0103C1.91846 81.9761 1.74927 81.9333 1.58862 81.8821C1.4314 81.8274 1.30493 81.7676 1.20923 81.7026ZM7.44873 75.417C7.29834 75.417 7.17017 75.3657 7.06421 75.2632C6.95825 75.1606 6.90527 75.0308 6.90527 74.8735C6.90527 74.7163 6.95825 74.5864 7.06421 74.4839C7.17017 74.3779 7.29834 74.325 7.44873 74.325C7.60254 74.325 7.73242 74.3779 7.83838 74.4839C7.94775 74.5864 8.00244 74.7163 8.00244 74.8735C8.00244 75.0239 7.94775 75.1521 7.83838 75.2581C7.73242 75.364 7.60254 75.417 7.44873 75.417ZM7.85889 82H7.01807V76.75H7.85889V82ZM9.24316 81.8103V80.908C9.70117 81.2463 10.2053 81.4155 10.7556 81.4155C11.4939 81.4155 11.863 81.1694 11.863 80.6772C11.863 80.5371 11.8306 80.4192 11.7656 80.3235C11.7041 80.2244 11.6187 80.1372 11.5093 80.062C11.4033 79.9868 11.2769 79.9202 11.1299 79.8621C10.9863 79.8005 10.8308 79.7373 10.6633 79.6724C10.4309 79.5801 10.2258 79.4878 10.0481 79.3955C9.87378 79.2998 9.72681 79.1938 9.60718 79.0776C9.49097 78.958 9.4021 78.823 9.34058 78.6726C9.28247 78.5222 9.25342 78.3462 9.25342 78.1445C9.25342 77.8984 9.30981 77.6814 9.42261 77.4934C9.5354 77.302 9.68579 77.1431 9.87378 77.0166C10.0618 76.8867 10.2754 76.7893 10.5146 76.7244C10.7573 76.6594 11.0068 76.627 11.2632 76.627C11.7178 76.627 12.1245 76.7056 12.4834 76.8628V77.7139C12.0972 77.4609 11.6528 77.3345 11.1504 77.3345C10.9932 77.3345 10.8513 77.3533 10.7249 77.3909C10.5984 77.425 10.489 77.4746 10.3967 77.5396C10.3079 77.6045 10.2378 77.6831 10.1865 77.7754C10.1387 77.8643 10.1147 77.9634 10.1147 78.0728C10.1147 78.2095 10.1387 78.324 10.1865 78.4163C10.2378 78.5085 10.3113 78.5906 10.407 78.6624C10.5027 78.7341 10.6189 78.7991 10.7556 78.8572C10.8923 78.9153 11.0479 78.9785 11.2222 79.0469C11.4546 79.1357 11.6631 79.228 11.8477 79.3237C12.0322 79.416 12.1895 79.522 12.3193 79.6416C12.4492 79.7578 12.5483 79.8928 12.6167 80.0466C12.6885 80.2004 12.7244 80.3833 12.7244 80.5952C12.7244 80.855 12.6663 81.0806 12.55 81.272C12.4373 81.4634 12.2852 81.6223 12.0938 81.7488C11.9023 81.8752 11.6819 81.9692 11.4324 82.0308C11.1829 82.0923 10.9214 82.123 10.6479 82.123C10.1079 82.123 9.63965 82.0188 9.24316 81.8103ZM16.4568 81.9487C16.2585 82.0581 15.9971 82.1128 15.6724 82.1128C14.7529 82.1128 14.2932 81.6001 14.2932 80.5747V77.4678H13.3909V76.75H14.2932V75.4683L15.134 75.1965V76.75H16.4568V77.4678H15.134V80.426C15.134 80.7781 15.1938 81.0293 15.3135 81.1797C15.4331 81.3301 15.6313 81.4053 15.9082 81.4053C16.1201 81.4053 16.303 81.3472 16.4568 81.231V81.9487ZM21.7991 79.5852H18.0923C18.106 80.1697 18.2632 80.6208 18.564 80.9387C18.8647 81.2566 19.2783 81.4155 19.8047 81.4155C20.396 81.4155 20.9395 81.2207 21.4351 80.8311V81.6206C20.9736 81.9556 20.3635 82.123 19.6047 82.123C18.863 82.123 18.2803 81.8855 17.8564 81.4104C17.4326 80.9319 17.2207 80.2603 17.2207 79.3955C17.2207 78.5786 17.4514 77.9138 17.9128 77.4011C18.3777 76.885 18.9536 76.627 19.6406 76.627C20.3276 76.627 20.8591 76.8491 21.2351 77.2935C21.6111 77.7378 21.7991 78.3547 21.7991 79.1443V79.5852ZM20.9377 78.8726C20.9343 78.3872 20.8164 78.0095 20.584 77.7395C20.355 77.4695 20.0354 77.3345 19.6252 77.3345C19.2288 77.3345 18.8921 77.4763 18.6152 77.76C18.3384 78.0437 18.1675 78.4146 18.1025 78.8726H20.9377ZM30.5303 82H29.6895V78.9854C29.6895 78.4043 29.5989 77.9839 29.4177 77.7241C29.24 77.4644 28.9392 77.3345 28.5154 77.3345C28.1565 77.3345 27.8506 77.4985 27.5977 77.8267C27.3481 78.1548 27.2234 78.5479 27.2234 79.0059V82H26.3826V78.8828C26.3826 77.8506 25.9844 77.3345 25.188 77.3345C24.8188 77.3345 24.5146 77.49 24.2754 77.801C24.0361 78.1086 23.9165 78.5103 23.9165 79.0059V82H23.0757V76.75H23.9165V77.5806H23.937C24.3096 76.9448 24.853 76.627 25.5674 76.627C25.9263 76.627 26.239 76.7278 26.5056 76.9294C26.7722 77.1277 26.9551 77.3892 27.0542 77.7139C27.4438 76.9893 28.0249 76.627 28.7974 76.627C29.9526 76.627 30.5303 77.3396 30.5303 78.7649V82ZM35.8777 82H35.0369V81.1797H35.0164C34.6506 81.8086 34.1123 82.123 33.4014 82.123C32.8784 82.123 32.4683 81.9846 32.1709 81.7078C31.877 81.4309 31.73 81.0635 31.73 80.6055C31.73 79.6245 32.3076 79.0537 33.4629 78.8931L35.0369 78.6726C35.0369 77.7805 34.6763 77.3345 33.9551 77.3345C33.3228 77.3345 32.752 77.5498 32.2427 77.9805V77.1191C32.7588 76.791 33.3535 76.627 34.0269 76.627C35.2607 76.627 35.8777 77.2798 35.8777 78.5854V82ZM35.0369 79.3442L33.7705 79.5186C33.3809 79.5732 33.0869 79.6707 32.8887 79.8108C32.6904 79.9475 32.5913 80.1919 32.5913 80.5439C32.5913 80.8003 32.6819 81.0105 32.863 81.1746C33.0476 81.3352 33.292 81.4155 33.5962 81.4155C34.0132 81.4155 34.3567 81.2703 34.6267 80.9797C34.9001 80.6858 35.0369 80.3149 35.0369 79.8672V79.3442ZM41.3174 82H40.4561V74.6479H41.3174V82ZM47.5005 82H46.6597V79.0059C46.6597 77.8916 46.2529 77.3345 45.4395 77.3345C45.019 77.3345 44.6704 77.4934 44.3936 77.8113C44.1201 78.1257 43.9834 78.5239 43.9834 79.0059V82H43.1426V76.75H43.9834V77.6216H44.0039C44.4004 76.9585 44.9746 76.627 45.7266 76.627C46.3008 76.627 46.74 76.8132 47.0442 77.1858C47.3484 77.5549 47.5005 78.0898 47.5005 78.7905V82ZM51.5251 81.9487C51.3269 82.0581 51.0654 82.1128 50.7407 82.1128C49.8213 82.1128 49.3616 81.6001 49.3616 80.5747V77.4678H48.4592V76.75H49.3616V75.4683L50.2024 75.1965V76.75H51.5251V77.4678H50.2024V80.426C50.2024 80.7781 50.2622 81.0293 50.3818 81.1797C50.5015 81.3301 50.6997 81.4053 50.9766 81.4053C51.1885 81.4053 51.3713 81.3472 51.5251 81.231V81.9487ZM56.8674 79.5852H53.1606C53.1743 80.1697 53.3315 80.6208 53.6323 80.9387C53.9331 81.2566 54.3467 81.4155 54.873 81.4155C55.4644 81.4155 56.0078 81.2207 56.5034 80.8311V81.6206C56.042 81.9556 55.4319 82.123 54.6731 82.123C53.9314 82.123 53.3486 81.8855 52.9248 81.4104C52.501 80.9319 52.2891 80.2603 52.2891 79.3955C52.2891 78.5786 52.5198 77.9138 52.9812 77.4011C53.446 76.885 54.022 76.627 54.709 76.627C55.396 76.627 55.9275 76.8491 56.3035 77.2935C56.6794 77.7378 56.8674 78.3547 56.8674 79.1443V79.5852ZM56.0061 78.8726C56.0027 78.3872 55.8848 78.0095 55.6523 77.7395C55.4233 77.4695 55.1038 77.3345 54.6936 77.3345C54.2971 77.3345 53.9604 77.4763 53.6836 77.76C53.4067 78.0437 53.2358 78.4146 53.1709 78.8726H56.0061ZM62.625 81.5796C62.625 83.5073 61.7021 84.4712 59.8564 84.4712C59.207 84.4712 58.6396 84.3481 58.1543 84.1021V83.2612C58.7456 83.5894 59.3096 83.7534 59.8462 83.7534C61.1382 83.7534 61.7842 83.0664 61.7842 81.6924V81.1182H61.7637C61.3638 81.7881 60.7622 82.123 59.959 82.123C59.3062 82.123 58.7798 81.8906 58.3799 81.4258C57.9834 80.9575 57.7852 80.3303 57.7852 79.5442C57.7852 78.6521 57.9988 77.9429 58.426 77.4165C58.8567 76.8901 59.4446 76.627 60.1897 76.627C60.8972 76.627 61.4219 76.9106 61.7637 77.478H61.7842V76.75H62.625V81.5796ZM61.7842 79.6262V78.8521C61.7842 78.4351 61.6423 78.0779 61.3586 77.7805C61.0784 77.4832 60.728 77.3345 60.3076 77.3345C59.7881 77.3345 59.3813 77.5242 59.0874 77.9036C58.7935 78.2795 58.6465 78.8076 58.6465 79.4878C58.6465 80.0723 58.7866 80.5405 59.0669 80.8926C59.3506 81.2412 59.7249 81.4155 60.1897 81.4155C60.6614 81.4155 61.0442 81.248 61.3381 80.9131C61.6355 80.5781 61.7842 80.1492 61.7842 79.6262ZM67.0649 77.6011C66.918 77.4883 66.7061 77.4319 66.4292 77.4319C66.0703 77.4319 65.7695 77.6011 65.5269 77.9395C65.2876 78.2778 65.168 78.7393 65.168 79.3237V82H64.3271V76.75H65.168V77.8318H65.1885C65.3081 77.4626 65.491 77.1755 65.7371 76.9705C65.9832 76.762 66.2583 76.6577 66.5625 76.6577C66.7812 76.6577 66.9487 76.6816 67.0649 76.7295V77.6011ZM71.7356 82H70.8948V81.1797H70.8743C70.5085 81.8086 69.9702 82.123 69.2593 82.123C68.7363 82.123 68.3262 81.9846 68.0288 81.7078C67.7349 81.4309 67.5879 81.0635 67.5879 80.6055C67.5879 79.6245 68.1655 79.0537 69.3208 78.8931L70.8948 78.6726C70.8948 77.7805 70.5342 77.3345 69.813 77.3345C69.1807 77.3345 68.6099 77.5498 68.1006 77.9805V77.1191C68.6167 76.791 69.2114 76.627 69.8848 76.627C71.1187 76.627 71.7356 77.2798 71.7356 78.5854V82ZM70.8948 79.3442L69.6284 79.5186C69.2388 79.5732 68.9448 79.6707 68.7466 79.8108C68.5483 79.9475 68.4492 80.1919 68.4492 80.5439C68.4492 80.8003 68.5398 81.0105 68.7209 81.1746C68.9055 81.3352 69.1499 81.4155 69.4541 81.4155C69.8711 81.4155 70.2146 81.2703 70.4846 80.9797C70.7581 80.6858 70.8948 80.3149 70.8948 79.8672V79.3442ZM77.8008 82H76.96V81.1079H76.9395C76.5498 81.7847 75.9482 82.123 75.1348 82.123C74.4751 82.123 73.947 81.8889 73.5505 81.4207C73.1575 80.949 72.9609 80.3081 72.9609 79.498C72.9609 78.6299 73.1797 77.9343 73.6172 77.4114C74.0547 76.8884 74.6375 76.627 75.3655 76.627C76.0867 76.627 76.6113 76.9106 76.9395 77.478H76.96V74.2275H77.8008V82ZM76.96 79.6262V78.8521C76.96 78.4282 76.8198 78.0693 76.5396 77.7754C76.2593 77.4814 75.9038 77.3345 75.4731 77.3345C74.9604 77.3345 74.5571 77.5225 74.2632 77.8984C73.9692 78.2744 73.8223 78.7939 73.8223 79.457C73.8223 80.062 73.9624 80.5405 74.2427 80.8926C74.5264 81.2412 74.9058 81.4155 75.3809 81.4155C75.8491 81.4155 76.2285 81.2463 76.519 80.908C76.813 80.5696 76.96 80.1423 76.96 79.6262ZM81.6973 82.123C80.9214 82.123 80.301 81.8787 79.8362 81.3899C79.3748 80.8977 79.144 80.2466 79.144 79.4365C79.144 78.5547 79.385 77.866 79.8669 77.3704C80.3489 76.8748 81 76.627 81.8203 76.627C82.603 76.627 83.2131 76.8679 83.6506 77.3499C84.0916 77.8318 84.312 78.5 84.312 79.3545C84.312 80.1919 84.0745 80.8635 83.5994 81.3694C83.1277 81.8718 82.4937 82.123 81.6973 82.123ZM81.7588 77.3345C81.2188 77.3345 80.7915 77.519 80.4771 77.8882C80.1626 78.2539 80.0054 78.7598 80.0054 79.4058C80.0054 80.0278 80.1643 80.5183 80.4822 80.8772C80.8 81.2361 81.2256 81.4155 81.7588 81.4155C82.3022 81.4155 82.7192 81.2395 83.0098 80.8875C83.3037 80.5354 83.4507 80.0347 83.4507 79.3853C83.4507 78.729 83.3037 78.2231 83.0098 77.8677C82.7192 77.5122 82.3022 77.3345 81.7588 77.3345ZM93.0176 82H92.1768V81.1079H92.1562C91.7666 81.7847 91.165 82.123 90.3516 82.123C89.6919 82.123 89.1638 81.8889 88.7673 81.4207C88.3743 80.949 88.1777 80.3081 88.1777 79.498C88.1777 78.6299 88.3965 77.9343 88.834 77.4114C89.2715 76.8884 89.8542 76.627 90.5823 76.627C91.3035 76.627 91.8281 76.9106 92.1562 77.478H92.1768V74.2275H93.0176V82ZM92.1768 79.6262V78.8521C92.1768 78.4282 92.0366 78.0693 91.7563 77.7754C91.4761 77.4814 91.1206 77.3345 90.6899 77.3345C90.1772 77.3345 89.7739 77.5225 89.48 77.8984C89.186 78.2744 89.0391 78.7939 89.0391 79.457C89.0391 80.062 89.1792 80.5405 89.4595 80.8926C89.7432 81.2412 90.1226 81.4155 90.5977 81.4155C91.0659 81.4155 91.4453 81.2463 91.7358 80.908C92.0298 80.5696 92.1768 80.1423 92.1768 79.6262ZM98.9392 79.5852H95.2324C95.2461 80.1697 95.4033 80.6208 95.7041 80.9387C96.0049 81.2566 96.4185 81.4155 96.9448 81.4155C97.5361 81.4155 98.0796 81.2207 98.5752 80.8311V81.6206C98.1138 81.9556 97.5037 82.123 96.7449 82.123C96.0032 82.123 95.4204 81.8855 94.9966 81.4104C94.5728 80.9319 94.3608 80.2603 94.3608 79.3955C94.3608 78.5786 94.5916 77.9138 95.053 77.4011C95.5178 76.885 96.0938 76.627 96.7808 76.627C97.4678 76.627 97.9993 76.8491 98.3752 77.2935C98.7512 77.7378 98.9392 78.3547 98.9392 79.1443V79.5852ZM98.0779 78.8726C98.0745 78.3872 97.9565 78.0095 97.7241 77.7395C97.4951 77.4695 97.1755 77.3345 96.7654 77.3345C96.3689 77.3345 96.0322 77.4763 95.7554 77.76C95.4785 78.0437 95.3076 78.4146 95.2427 78.8726H98.0779ZM108.706 81.4976C107.968 81.9146 107.147 82.123 106.245 82.123C105.196 82.123 104.346 81.7847 103.697 81.1079C103.051 80.4312 102.728 79.5356 102.728 78.4214C102.728 77.2832 103.087 76.3501 103.805 75.6221C104.526 74.8906 105.438 74.5249 106.542 74.5249C107.342 74.5249 108.014 74.6548 108.557 74.9146V75.8682C107.963 75.4922 107.259 75.3042 106.445 75.3042C105.621 75.3042 104.946 75.5879 104.42 76.1553C103.894 76.7227 103.63 77.4575 103.63 78.3599C103.63 79.2896 103.875 80.021 104.364 80.5542C104.852 81.084 105.515 81.3489 106.353 81.3489C106.927 81.3489 107.424 81.2344 107.845 81.0054V78.9443H106.235V78.165H108.706V81.4976ZM114.525 79.5852H110.818C110.832 80.1697 110.989 80.6208 111.29 80.9387C111.591 81.2566 112.004 81.4155 112.531 81.4155C113.122 81.4155 113.666 81.2207 114.161 80.8311V81.6206C113.7 81.9556 113.09 82.123 112.331 82.123C111.589 82.123 111.006 81.8855 110.583 81.4104C110.159 80.9319 109.947 80.2603 109.947 79.3955C109.947 78.5786 110.177 77.9138 110.639 77.4011C111.104 76.885 111.68 76.627 112.367 76.627C113.054 76.627 113.585 76.8491 113.961 77.2935C114.337 77.7378 114.525 78.3547 114.525 79.1443V79.5852ZM113.664 78.8726C113.66 78.3872 113.542 78.0095 113.31 77.7395C113.081 77.4695 112.761 77.3345 112.351 77.3345C111.955 77.3345 111.618 77.4763 111.341 77.76C111.064 78.0437 110.894 78.4146 110.829 78.8726H113.664ZM115.484 81.8103V80.908C115.942 81.2463 116.446 81.4155 116.996 81.4155C117.735 81.4155 118.104 81.1694 118.104 80.6772C118.104 80.5371 118.071 80.4192 118.006 80.3235C117.945 80.2244 117.859 80.1372 117.75 80.062C117.644 79.9868 117.518 79.9202 117.371 79.8621C117.227 79.8005 117.072 79.7373 116.904 79.6724C116.672 79.5801 116.467 79.4878 116.289 79.3955C116.115 79.2998 115.968 79.1938 115.848 79.0776C115.732 78.958 115.643 78.823 115.581 78.6726C115.523 78.5222 115.494 78.3462 115.494 78.1445C115.494 77.8984 115.551 77.6814 115.663 77.4934C115.776 77.302 115.927 77.1431 116.115 77.0166C116.302 76.8867 116.516 76.7893 116.755 76.7244C116.998 76.6594 117.248 76.627 117.504 76.627C117.958 76.627 118.365 76.7056 118.724 76.8628V77.7139C118.338 77.4609 117.894 77.3345 117.391 77.3345C117.234 77.3345 117.092 77.3533 116.966 77.3909C116.839 77.425 116.73 77.4746 116.637 77.5396C116.549 77.6045 116.479 77.6831 116.427 77.7754C116.379 77.8643 116.355 77.9634 116.355 78.0728C116.355 78.2095 116.379 78.324 116.427 78.4163C116.479 78.5085 116.552 78.5906 116.648 78.6624C116.743 78.7341 116.86 78.7991 116.996 78.8572C117.133 78.9153 117.289 78.9785 117.463 79.0469C117.695 79.1357 117.904 79.228 118.088 79.3237C118.273 79.416 118.43 79.522 118.56 79.6416C118.69 79.7578 118.789 79.8928 118.857 80.0466C118.929 80.2004 118.965 80.3833 118.965 80.5952C118.965 80.855 118.907 81.0806 118.791 81.272C118.678 81.4634 118.526 81.6223 118.334 81.7488C118.143 81.8752 117.923 81.9692 117.673 82.0308C117.424 82.0923 117.162 82.123 116.889 82.123C116.349 82.123 115.88 82.0188 115.484 81.8103ZM122.698 81.9487C122.499 82.0581 122.238 82.1128 121.913 82.1128C120.994 82.1128 120.534 81.6001 120.534 80.5747V77.4678H119.632V76.75H120.534V75.4683L121.375 75.1965V76.75H122.698V77.4678H121.375V80.426C121.375 80.7781 121.435 81.0293 121.554 81.1797C121.674 81.3301 121.872 81.4053 122.149 81.4053C122.361 81.4053 122.544 81.3472 122.698 81.231V81.9487ZM127.578 82H126.738V81.1797H126.717C126.351 81.8086 125.813 82.123 125.102 82.123C124.579 82.123 124.169 81.9846 123.872 81.7078C123.578 81.4309 123.431 81.0635 123.431 80.6055C123.431 79.6245 124.008 79.0537 125.164 78.8931L126.738 78.6726C126.738 77.7805 126.377 77.3345 125.656 77.3345C125.023 77.3345 124.453 77.5498 123.943 77.9805V77.1191C124.459 76.791 125.054 76.627 125.728 76.627C126.961 76.627 127.578 77.2798 127.578 78.5854V82ZM126.738 79.3442L125.471 79.5186C125.082 79.5732 124.788 79.6707 124.589 79.8108C124.391 79.9475 124.292 80.1919 124.292 80.5439C124.292 80.8003 124.383 81.0105 124.564 81.1746C124.748 81.3352 124.993 81.4155 125.297 81.4155C125.714 81.4155 126.057 81.2703 126.327 80.9797C126.601 80.6858 126.738 80.3149 126.738 79.8672V79.3442ZM127.296 74.5249C127.296 74.8838 127.214 75.1777 127.05 75.4067C126.886 75.6323 126.664 75.7451 126.384 75.7451C126.141 75.7451 125.864 75.6562 125.553 75.4785C125.29 75.3315 125.087 75.2581 124.943 75.2581C124.642 75.2581 124.492 75.4512 124.492 75.8374H124.01C124.01 75.4717 124.092 75.1794 124.256 74.9607C124.42 74.7385 124.649 74.6274 124.943 74.6274C125.165 74.6274 125.42 74.7163 125.707 74.894C125.96 75.0444 126.179 75.1196 126.363 75.1196C126.65 75.1196 126.794 74.9214 126.794 74.5249H127.296ZM131.357 82.123C130.581 82.123 129.961 81.8787 129.496 81.3899C129.034 80.8977 128.804 80.2466 128.804 79.4365C128.804 78.5547 129.045 77.866 129.527 77.3704C130.009 76.8748 130.66 76.627 131.48 76.627C132.263 76.627 132.873 76.8679 133.31 77.3499C133.751 77.8318 133.972 78.5 133.972 79.3545C133.972 80.1919 133.734 80.8635 133.259 81.3694C132.787 81.8718 132.153 82.123 131.357 82.123ZM131.418 77.3345C130.878 77.3345 130.451 77.519 130.137 77.8882C129.822 78.2539 129.665 78.7598 129.665 79.4058C129.665 80.0278 129.824 80.5183 130.142 80.8772C130.46 81.2361 130.885 81.4155 131.418 81.4155C131.962 81.4155 132.379 81.2395 132.669 80.8875C132.963 80.5354 133.11 80.0347 133.11 79.3853C133.11 78.729 132.963 78.2231 132.669 77.8677C132.379 77.5122 131.962 77.3345 131.418 77.3345ZM142.677 82H141.836V81.1079H141.816C141.426 81.7847 140.825 82.123 140.011 82.123C139.352 82.123 138.823 81.8889 138.427 81.4207C138.034 80.949 137.837 80.3081 137.837 79.498C137.837 78.6299 138.056 77.9343 138.494 77.4114C138.931 76.8884 139.514 76.627 140.242 76.627C140.963 76.627 141.488 76.9106 141.816 77.478H141.836V74.2275H142.677V82ZM141.836 79.6262V78.8521C141.836 78.4282 141.696 78.0693 141.416 77.7754C141.136 77.4814 140.78 77.3345 140.35 77.3345C139.837 77.3345 139.434 77.5225 139.14 77.8984C138.846 78.2744 138.699 78.7939 138.699 79.457C138.699 80.062 138.839 80.5405 139.119 80.8926C139.403 81.2412 139.782 81.4155 140.257 81.4155C140.726 81.4155 141.105 81.2463 141.396 80.908C141.689 80.5696 141.836 80.1423 141.836 79.6262ZM148.599 79.5852H144.892C144.906 80.1697 145.063 80.6208 145.364 80.9387C145.665 81.2566 146.078 81.4155 146.604 81.4155C147.196 81.4155 147.739 81.2207 148.235 80.8311V81.6206C147.773 81.9556 147.163 82.123 146.405 82.123C145.663 82.123 145.08 81.8855 144.656 81.4104C144.232 80.9319 144.021 80.2603 144.021 79.3955C144.021 78.5786 144.251 77.9138 144.713 77.4011C145.177 76.885 145.753 76.627 146.44 76.627C147.127 76.627 147.659 76.8491 148.035 77.2935C148.411 77.7378 148.599 78.3547 148.599 79.1443V79.5852ZM147.738 78.8726C147.734 78.3872 147.616 78.0095 147.384 77.7395C147.155 77.4695 146.835 77.3345 146.425 77.3345C146.029 77.3345 145.692 77.4763 145.415 77.76C145.138 78.0437 144.967 78.4146 144.902 78.8726H147.738ZM153.731 79.2212V82H152.87V74.6479H154.89C155.676 74.6479 156.284 74.8394 156.715 75.2222C157.149 75.605 157.366 76.145 157.366 76.8423C157.366 77.5396 157.125 78.1104 156.643 78.5547C156.165 78.999 155.517 79.2212 154.7 79.2212H153.731ZM153.731 75.4272V78.4419H154.633C155.228 78.4419 155.681 78.3069 155.992 78.0369C156.306 77.7634 156.464 77.3789 156.464 76.8833C156.464 75.9126 155.889 75.4272 154.741 75.4272H153.731ZM161.38 77.6011C161.233 77.4883 161.021 77.4319 160.745 77.4319C160.386 77.4319 160.085 77.6011 159.842 77.9395C159.603 78.2778 159.483 78.7393 159.483 79.3237V82H158.643V76.75H159.483V77.8318H159.504C159.624 77.4626 159.806 77.1755 160.052 76.9705C160.299 76.762 160.574 76.6577 160.878 76.6577C161.097 76.6577 161.264 76.6816 161.38 76.7295V77.6011ZM164.487 82.123C163.711 82.123 163.091 81.8787 162.626 81.3899C162.165 80.8977 161.934 80.2466 161.934 79.4365C161.934 78.5547 162.175 77.866 162.657 77.3704C163.139 76.8748 163.79 76.627 164.61 76.627C165.393 76.627 166.003 76.8679 166.441 77.3499C166.882 77.8318 167.102 78.5 167.102 79.3545C167.102 80.1919 166.865 80.8635 166.389 81.3694C165.918 81.8718 165.284 82.123 164.487 82.123ZM164.549 77.3345C164.009 77.3345 163.582 77.519 163.267 77.8882C162.953 78.2539 162.795 78.7598 162.795 79.4058C162.795 80.0278 162.954 80.5183 163.272 80.8772C163.59 81.2361 164.016 81.4155 164.549 81.4155C165.092 81.4155 165.509 81.2395 165.8 80.8875C166.094 80.5354 166.241 80.0347 166.241 79.3853C166.241 78.729 166.094 78.2231 165.8 77.8677C165.509 77.5122 165.092 77.3345 164.549 77.3345ZM172.803 82H171.962V79.0059C171.962 77.8916 171.556 77.3345 170.742 77.3345C170.322 77.3345 169.973 77.4934 169.696 77.8113C169.423 78.1257 169.286 78.5239 169.286 79.0059V82H168.445V76.75H169.286V77.6216H169.307C169.703 76.9585 170.277 76.627 171.029 76.627C171.604 76.627 172.043 76.8132 172.347 77.1858C172.651 77.5549 172.803 78.0898 172.803 78.7905V82ZM176.828 81.9487C176.63 82.0581 176.368 82.1128 176.043 82.1128C175.124 82.1128 174.664 81.6001 174.664 80.5747V77.4678H173.762V76.75H174.664V75.4683L175.505 75.1965V76.75H176.828V77.4678H175.505V80.426C175.505 80.7781 175.565 81.0293 175.685 81.1797C175.804 81.3301 176.002 81.4053 176.279 81.4053C176.491 81.4053 176.674 81.3472 176.828 81.231V81.9487ZM182.196 82H181.355V81.1694H181.334C180.986 81.8052 180.446 82.123 179.714 82.123C178.463 82.123 177.838 81.3779 177.838 79.8877V76.75H178.674V79.7544C178.674 80.8618 179.097 81.4155 179.945 81.4155C180.355 81.4155 180.692 81.2651 180.955 80.9644C181.222 80.6602 181.355 80.2637 181.355 79.7749V76.75H182.196V82ZM187.656 82H186.815V81.1797H186.795C186.429 81.8086 185.891 82.123 185.18 82.123C184.657 82.123 184.247 81.9846 183.949 81.7078C183.655 81.4309 183.508 81.0635 183.508 80.6055C183.508 79.6245 184.086 79.0537 185.241 78.8931L186.815 78.6726C186.815 77.7805 186.455 77.3345 185.733 77.3345C185.101 77.3345 184.53 77.5498 184.021 77.9805V77.1191C184.537 76.791 185.132 76.627 185.805 76.627C187.039 76.627 187.656 77.2798 187.656 78.5854V82ZM186.815 79.3442L185.549 79.5186C185.159 79.5732 184.865 79.6707 184.667 79.8108C184.469 79.9475 184.37 80.1919 184.37 80.5439C184.37 80.8003 184.46 81.0105 184.641 81.1746C184.826 81.3352 185.07 81.4155 185.375 81.4155C185.792 81.4155 186.135 81.2703 186.405 80.9797C186.678 80.6858 186.815 80.3149 186.815 79.8672V79.3442ZM186.928 74.0737L185.585 75.7554H184.934L186.077 74.0737H186.928ZM191.978 77.6011C191.831 77.4883 191.619 77.4319 191.342 77.4319C190.983 77.4319 190.683 77.6011 190.44 77.9395C190.201 78.2778 190.081 78.7393 190.081 79.3237V82H189.24V76.75H190.081V77.8318H190.102C190.221 77.4626 190.404 77.1755 190.65 76.9705C190.896 76.762 191.171 76.6577 191.476 76.6577C191.694 76.6577 191.862 76.6816 191.978 76.7295V77.6011ZM193.321 75.417C193.171 75.417 193.043 75.3657 192.937 75.2632C192.831 75.1606 192.778 75.0308 192.778 74.8735C192.778 74.7163 192.831 74.5864 192.937 74.4839C193.043 74.3779 193.171 74.325 193.321 74.325C193.475 74.325 193.605 74.3779 193.711 74.4839C193.82 74.5864 193.875 74.7163 193.875 74.8735C193.875 75.0239 193.82 75.1521 193.711 75.2581C193.605 75.364 193.475 75.417 193.321 75.417ZM193.731 82H192.891V76.75H193.731V82ZM197.628 82.123C196.852 82.123 196.232 81.8787 195.767 81.3899C195.305 80.8977 195.075 80.2466 195.075 79.4365C195.075 78.5547 195.316 77.866 195.798 77.3704C196.28 76.8748 196.931 76.627 197.751 76.627C198.534 76.627 199.144 76.8679 199.581 77.3499C200.022 77.8318 200.243 78.5 200.243 79.3545C200.243 80.1919 200.005 80.8635 199.53 81.3694C199.058 81.8718 198.424 82.123 197.628 82.123ZM197.689 77.3345C197.149 77.3345 196.722 77.519 196.408 77.8882C196.093 78.2539 195.936 78.7598 195.936 79.4058C195.936 80.0278 196.095 80.5183 196.413 80.8772C196.731 81.2361 197.156 81.4155 197.689 81.4155C198.233 81.4155 198.65 81.2395 198.94 80.8875C199.234 80.5354 199.381 80.0347 199.381 79.3853C199.381 78.729 199.234 78.2231 198.94 77.8677C198.65 77.5122 198.233 77.3345 197.689 77.3345ZM201.268 81.8103V80.908C201.726 81.2463 202.23 81.4155 202.781 81.4155C203.519 81.4155 203.888 81.1694 203.888 80.6772C203.888 80.5371 203.855 80.4192 203.791 80.3235C203.729 80.2244 203.644 80.1372 203.534 80.062C203.428 79.9868 203.302 79.9202 203.155 79.8621C203.011 79.8005 202.856 79.7373 202.688 79.6724C202.456 79.5801 202.251 79.4878 202.073 79.3955C201.899 79.2998 201.752 79.1938 201.632 79.0776C201.516 78.958 201.427 78.823 201.365 78.6726C201.307 78.5222 201.278 78.3462 201.278 78.1445C201.278 77.8984 201.335 77.6814 201.448 77.4934C201.56 77.302 201.711 77.1431 201.899 77.0166C202.087 76.8867 202.3 76.7893 202.54 76.7244C202.782 76.6594 203.032 76.627 203.288 76.627C203.743 76.627 204.149 76.7056 204.508 76.8628V77.7139C204.122 77.4609 203.678 77.3345 203.175 77.3345C203.018 77.3345 202.876 77.3533 202.75 77.3909C202.623 77.425 202.514 77.4746 202.422 77.5396C202.333 77.6045 202.263 77.6831 202.211 77.7754C202.164 77.8643 202.14 77.9634 202.14 78.0728C202.14 78.2095 202.164 78.324 202.211 78.4163C202.263 78.5085 202.336 78.5906 202.432 78.6624C202.528 78.7341 202.644 78.7991 202.781 78.8572C202.917 78.9153 203.073 78.9785 203.247 79.0469C203.479 79.1357 203.688 79.228 203.873 79.3237C204.057 79.416 204.214 79.522 204.344 79.6416C204.474 79.7578 204.573 79.8928 204.642 80.0466C204.713 80.2004 204.749 80.3833 204.749 80.5952C204.749 80.855 204.691 81.0806 204.575 81.272C204.462 81.4634 204.31 81.6223 204.119 81.7488C203.927 81.8752 203.707 81.9692 203.457 82.0308C203.208 82.0923 202.946 82.123 202.673 82.123C202.133 82.123 201.665 82.0188 201.268 81.8103ZM212.937 82H209.041V74.6479H212.773V75.4272H209.902V77.8728H212.558V78.647H209.902V81.2207H212.937V82ZM215.08 82H214.239V74.2275H215.08V82ZM221.002 79.5852H217.295C217.309 80.1697 217.466 80.6208 217.767 80.9387C218.067 81.2566 218.481 81.4155 219.007 81.4155C219.599 81.4155 220.142 81.2207 220.638 80.8311V81.6206C220.176 81.9556 219.566 82.123 218.807 82.123C218.066 82.123 217.483 81.8855 217.059 81.4104C216.635 80.9319 216.423 80.2603 216.423 79.3955C216.423 78.5786 216.654 77.9138 217.115 77.4011C217.58 76.885 218.156 76.627 218.843 76.627C219.53 76.627 220.062 76.8491 220.438 77.2935C220.814 77.7378 221.002 78.3547 221.002 79.1443V79.5852ZM220.14 78.8726C220.137 78.3872 220.019 78.0095 219.787 77.7395C219.558 77.4695 219.238 77.3345 218.828 77.3345C218.431 77.3345 218.095 77.4763 217.818 77.76C217.541 78.0437 217.37 78.4146 217.305 78.8726H220.14ZM224.714 81.9487C224.515 82.0581 224.254 82.1128 223.929 82.1128C223.01 82.1128 222.55 81.6001 222.55 80.5747V77.4678H221.648V76.75H222.55V75.4683L223.391 75.1965V76.75H224.714V77.4678H223.391V80.426C223.391 80.7781 223.451 81.0293 223.57 81.1797C223.69 81.3301 223.888 81.4053 224.165 81.4053C224.377 81.4053 224.56 81.3472 224.714 81.231V81.9487ZM228.574 77.6011C228.427 77.4883 228.215 77.4319 227.938 77.4319C227.58 77.4319 227.279 77.6011 227.036 77.9395C226.797 78.2778 226.677 78.7393 226.677 79.3237V82H225.836V76.75H226.677V77.8318H226.698C226.817 77.4626 227 77.1755 227.246 76.9705C227.492 76.762 227.768 76.6577 228.072 76.6577C228.291 76.6577 228.458 76.6816 228.574 76.7295V77.6011ZM231.681 82.123C230.905 82.123 230.285 81.8787 229.82 81.3899C229.359 80.8977 229.128 80.2466 229.128 79.4365C229.128 78.5547 229.369 77.866 229.851 77.3704C230.333 76.8748 230.984 76.627 231.804 76.627C232.587 76.627 233.197 76.8679 233.635 77.3499C234.075 77.8318 234.296 78.5 234.296 79.3545C234.296 80.1919 234.058 80.8635 233.583 81.3694C233.112 81.8718 232.478 82.123 231.681 82.123ZM231.743 77.3345C231.203 77.3345 230.775 77.519 230.461 77.8882C230.146 78.2539 229.989 78.7598 229.989 79.4058C229.989 80.0278 230.148 80.5183 230.466 80.8772C230.784 81.2361 231.209 81.4155 231.743 81.4155C232.286 81.4155 232.703 81.2395 232.994 80.8875C233.288 80.5354 233.435 80.0347 233.435 79.3853C233.435 78.729 233.288 78.2231 232.994 77.8677C232.703 77.5122 232.286 77.3345 231.743 77.3345ZM233.173 75.7554H232.548L231.707 74.5762L230.861 75.7554H230.281L231.384 74.0532H232.066L233.173 75.7554ZM239.997 82H239.156V79.0059C239.156 77.8916 238.75 77.3345 237.936 77.3345C237.516 77.3345 237.167 77.4934 236.89 77.8113C236.617 78.1257 236.48 78.5239 236.48 79.0059V82H235.639V76.75H236.48V77.6216H236.5C236.897 76.9585 237.471 76.627 238.223 76.627C238.797 76.627 239.237 76.8132 239.541 77.1858C239.845 77.5549 239.997 78.0898 239.997 78.7905V82ZM242.017 75.417C241.867 75.417 241.739 75.3657 241.633 75.2632C241.527 75.1606 241.474 75.0308 241.474 74.8735C241.474 74.7163 241.527 74.5864 241.633 74.4839C241.739 74.3779 241.867 74.325 242.017 74.325C242.171 74.325 242.301 74.3779 242.407 74.4839C242.516 74.5864 242.571 74.7163 242.571 74.8735C242.571 75.0239 242.516 75.1521 242.407 75.2581C242.301 75.364 242.171 75.417 242.017 75.417ZM242.427 82H241.586V76.75H242.427V82ZM247.708 81.759C247.305 82.0017 246.826 82.123 246.272 82.123C245.524 82.123 244.919 81.8804 244.458 81.395C244 80.9062 243.771 80.2739 243.771 79.498C243.771 78.6333 244.018 77.9395 244.514 77.4165C245.01 76.8901 245.671 76.627 246.498 76.627C246.959 76.627 247.366 76.7124 247.718 76.8833V77.7446C247.329 77.4712 246.912 77.3345 246.467 77.3345C245.931 77.3345 245.49 77.5276 245.145 77.9138C244.803 78.2966 244.632 78.8008 244.632 79.4263C244.632 80.0415 244.792 80.5269 245.114 80.8823C245.438 81.2378 245.873 81.4155 246.416 81.4155C246.874 81.4155 247.305 81.2634 247.708 80.9592V81.759ZM251.174 82.123C250.398 82.123 249.778 81.8787 249.313 81.3899C248.851 80.8977 248.621 80.2466 248.621 79.4365C248.621 78.5547 248.862 77.866 249.344 77.3704C249.825 76.8748 250.477 76.627 251.297 76.627C252.08 76.627 252.69 76.8679 253.127 77.3499C253.568 77.8318 253.789 78.5 253.789 79.3545C253.789 80.1919 253.551 80.8635 253.076 81.3694C252.604 81.8718 251.97 82.123 251.174 82.123ZM251.235 77.3345C250.695 77.3345 250.268 77.519 249.954 77.8882C249.639 78.2539 249.482 78.7598 249.482 79.4058C249.482 80.0278 249.641 80.5183 249.959 80.8772C250.277 81.2361 250.702 81.4155 251.235 81.4155C251.779 81.4155 252.196 81.2395 252.486 80.8875C252.78 80.5354 252.927 80.0347 252.927 79.3853C252.927 78.729 252.78 78.2231 252.486 77.8677C252.196 77.5122 251.779 77.3345 251.235 77.3345ZM254.814 81.8103V80.908C255.272 81.2463 255.776 81.4155 256.326 81.4155C257.065 81.4155 257.434 81.1694 257.434 80.6772C257.434 80.5371 257.401 80.4192 257.336 80.3235C257.275 80.2244 257.189 80.1372 257.08 80.062C256.974 79.9868 256.848 79.9202 256.701 79.8621C256.557 79.8005 256.402 79.7373 256.234 79.6724C256.002 79.5801 255.797 79.4878 255.619 79.3955C255.445 79.2998 255.298 79.1938 255.178 79.0776C255.062 78.958 254.973 78.823 254.911 78.6726C254.853 78.5222 254.824 78.3462 254.824 78.1445C254.824 77.8984 254.881 77.6814 254.993 77.4934C255.106 77.302 255.257 77.1431 255.445 77.0166C255.633 76.8867 255.846 76.7893 256.085 76.7244C256.328 76.6594 256.578 76.627 256.834 76.627C257.289 76.627 257.695 76.7056 258.054 76.8628V77.7139C257.668 77.4609 257.224 77.3345 256.721 77.3345C256.564 77.3345 256.422 77.3533 256.296 77.3909C256.169 77.425 256.06 77.4746 255.968 77.5396C255.879 77.6045 255.809 77.6831 255.757 77.7754C255.709 77.8643 255.686 77.9634 255.686 78.0728C255.686 78.2095 255.709 78.324 255.757 78.4163C255.809 78.5085 255.882 78.5906 255.978 78.6624C256.073 78.7341 256.19 78.7991 256.326 78.8572C256.463 78.9153 256.619 78.9785 256.793 79.0469C257.025 79.1357 257.234 79.228 257.418 79.3237C257.603 79.416 257.76 79.522 257.89 79.6416C258.02 79.7578 258.119 79.8928 258.188 80.0466C258.259 80.2004 258.295 80.3833 258.295 80.5952C258.295 80.855 258.237 81.0806 258.121 81.272C258.008 81.4634 257.856 81.6223 257.665 81.7488C257.473 81.8752 257.253 81.9692 257.003 82.0308C256.754 82.0923 256.492 82.123 256.219 82.123C255.679 82.123 255.21 82.0188 254.814 81.8103Z" fill="#0D6EFD"/>
</svg>
