<svg width="52" height="53" viewBox="0 0 52 53" fill="none" xmlns="http://www.w3.org/2000/svg">
<path d="M12.9412 52.3823V39.4412H0V13.5588H12.9412V0.617645H38.8235V13.5588H51.7647V39.4412H38.8235V52.3823H12.9412ZM5.17647 23.9118H18.1176C18.549 23.9118 18.9588 24.0196 19.3471 24.2353C19.7353 24.451 20.0373 24.7314 20.2529 25.0765L22.5176 28.4412L26.0118 17.9588C26.1843 17.4412 26.4971 17.0098 26.95 16.6647C27.4029 16.3196 27.9098 16.1471 28.4706 16.1471C28.902 16.1471 29.3118 16.2549 29.7 16.4706C30.0882 16.6863 30.3902 16.9667 30.6059 17.3118L35.0059 23.9118H46.5882V18.7353H33.6471V5.79412H18.1176V18.7353H5.17647V23.9118ZM18.1176 47.2059H33.6471V34.2647H46.5882V29.0882H33.6471C33.2157 29.0882 32.8059 28.9804 32.4176 28.7647C32.0294 28.549 31.7059 28.2686 31.4471 27.9235L29.2471 24.5588L25.7529 35.0412C25.5804 35.5588 25.2569 35.9902 24.7824 36.3353C24.3078 36.6804 23.7902 36.8529 23.2294 36.8529C22.798 36.8529 22.3882 36.7451 22 36.5294C21.6118 36.3137 21.3098 36.0333 21.0941 35.6882L16.6941 29.0882H5.17647V34.2647H18.1176V47.2059Z" fill="#0D6EFD"/>
</svg>
